<?xml version="1.0" encoding="UTF-8"?>
<svg id="Layer_1_Image" data-name="Layer 1 Image" xmlns="http://www.w3.org/2000/svg" viewBox="0 0 146.1 145.47">
  <path d="M21.68,137.69c1.37-2.31,2.72-4.57,4.05-6.83,2.55-4.35,5.1-8.69,7.6-13.06,.46-.81,.92-1.15,1.94-1.11,6.59,.28,13.19,.43,19.78,.68,.83,.03,1.7,.34,2.47,.7,9.36,4.48,18.6,4.63,27.53-1.02,3.3-2.09,5.12-5.43,6.19-9.15,.87-3.03,1.21-6.11,.89-9.25-.35-3.54-1.68-6.62-4.07-9.28-2.78-3.09-6.08-5.55-9.51-7.83-3.59-2.39-7.24-4.7-10.87-7.04-.16-.11-.35-.18-.6-.31-.14,.2-.31,.36-.4,.56-3.65,7.74-7.37,15.44-10.92,23.23-1.54,3.38-2.72,6.92-4.1,10.37-.13,.34-.53,.81-.81,.81-3.91-.05-7.82-.15-11.72-.3-.72-.03-1.43-.38-2.44-.66,9.59-20.53,19.09-40.86,28.71-61.44,.06,.16,.12,.35,.22,.52,4.28,7.3,10.64,12.38,17.83,16.53,4.39,2.54,8.89,4.9,13.28,7.44,5.66,3.27,10.18,7.71,13.31,13.49,2.91,5.38,3.32,11.19,2.91,17.14-1.01,14.58-10.81,28.99-30.24,33.5-7.82,1.81-15.71,1.69-23.62,.82-5.81-.64-11.57-1.58-17.18-3.24-.87-.26-1.14,.2-1.49,.76-1.91,3.05-3.83,6.1-5.73,9.15-.3,.48-.54,.83-1.22,.5-3.78-1.82-7.59-3.6-11.38-5.39-.1-.05-.19-.13-.37-.26Z"/>
  <path d="M51.69,60.42c-.82-1.1-1.54-2.05-2.23-3.01-6.01-8.29-8.44-17.45-6.84-27.63,1.46-9.33,6.07-16.46,14.46-20.98,6.04-3.25,12.43-5.24,19.38-5.01,.71,.02,1.41,.12,2.32,.2-.21,.54-.32,.95-.51,1.31-2.33,4.69-4.67,9.37-7.04,14.04-.21,.42-.63,.87-1.06,1.03-7.04,2.68-9.99,8.12-10.19,15.3-.05,1.85,.42,3.71,.61,5.58,.05,.49,.13,1.08-.07,1.49-2.75,5.68-5.55,11.34-8.34,17-.08,.17-.22,.31-.49,.68Z"/>
  <path d="M76.83,19.42c.14-.38,.18-.57,.27-.74,2.34-4.42,4.69-8.83,7.02-13.25,.36-.68,.71-.9,1.5-.62,9.61,3.38,18.9,7.42,27.49,12.98,.9,.58,1.17,1.08,.74,2.1-.6,1.43-1.04,2.92-1.6,4.55-11.32-5.15-22.98-7.23-35.42-5.02Z"/>
</svg>