<?xml version="1.0" encoding="UTF-8"?>
<svg id="S_Image" data-name="S Image" xmlns="http://www.w3.org/2000/svg" viewBox="0 0 521.28 265.2">
  <defs>
    <style>
      .cls-1 {
        fill: #fff;
      }
    </style>
  </defs>
  <path class="cls-1" d="M111.45,85.9c.28,.36,.44,.52,.55,.72,5.82,10.26,14.22,18.06,23.79,24.66,4.01,2.76,8.28,5.15,12.5,7.59,8.05,4.66,16.31,8.97,24.18,13.91,8.59,5.39,15.13,12.88,19.93,21.83,3.89,7.27,5.24,15.14,5.31,23.28,.11,12.61-2.55,24.52-9.02,35.47-6.44,10.9-15.35,19.17-26.54,25-12.12,6.32-25.13,9.13-38.71,9.47-18.24,.46-36.15-1.94-53.74-6.74-1.02-.28-1.55-.17-2.12,.75-3.55,5.75-7.16,11.46-10.75,17.18-.27,.43-.56,.86-.9,1.38-7.48-3.5-14.89-6.97-22.44-10.51,1.08-1.85,2.09-3.59,3.11-5.34,6.13-10.49,12.27-20.98,18.37-31.49,.52-.91,1-1.24,2.11-1.2,12.35,.45,24.7,.83,37.06,1.2,1.24,.04,2.29,.31,3.37,.96,5.51,3.33,11.58,4.9,17.92,5.66,8.34,.99,16.39,.07,24.25-3.04,9.91-3.93,16.22-10.96,18.95-21.22,2.08-7.81,2.46-15.62-.19-23.4-1.25-3.66-3.36-6.79-5.97-9.61-4.56-4.94-9.77-9.08-15.42-12.7-6.99-4.48-13.91-9.09-20.86-13.63-.4-.26-.82-.49-1.31-.78-.2,.32-.39,.56-.52,.83-6.43,13.68-13.01,27.29-19.23,41.06-2.98,6.58-5.31,13.46-7.88,20.22-.29,.75-.57,1.04-1.42,1.04-5.59-.05-11.19,.09-16.77-.08-2.29-.07-4.56-.75-6.83-1.18-.46-.09-.89-.31-1.45-.51,.7-1.59,1.32-3.09,2-4.57,8.65-18.73,17.3-37.47,25.96-56.19,2.37-5.12,4.79-10.21,7.12-15.34,4.92-10.85,9.79-21.72,14.68-32.58,.29-.64,.56-1.28,.9-2.07Z"/>
  <path class="cls-1" d="M87.22,110.88c-2.2-3.18-4.38-6.09-6.32-9.16-4.06-6.45-7.72-13.14-9.25-20.7-2.93-14.49-2.09-28.65,4.43-42.15,3.69-7.63,9.22-13.72,16.34-18.29,11.08-7.13,23.14-11.36,36.4-11.76,2.29-.07,4.59,.17,7.12,.28-.31,.76-.46,1.25-.68,1.69-4.41,8.88-8.81,17.76-13.27,26.62-.27,.53-.89,1.04-1.46,1.25-10.14,3.75-15.97,11.03-17.87,21.6-1.01,5.65-.79,11.22,.79,16.74,.12,.42,.1,.97-.07,1.37-4.65,10.8-9.74,21.39-15.49,31.65-.11,.2-.28,.37-.66,.85Z"/>
  <path class="cls-1" d="M196.02,45.87c-20.45-9.31-41.49-12.96-63.73-8.92,.14-.41,.21-.72,.35-.98,4.39-8.31,8.79-16.6,13.16-24.92,.4-.76,.83-.89,1.63-.62,16.36,5.67,32.25,12.35,46.99,21.54,1.49,.93,2.98,1.87,4.44,2.86,.29,.2,.63,.73,.55,.98-1.06,3.3-2.2,6.58-3.38,10.05Z"/>
  <path class="cls-1" d="M327.43,129.07h-4.81v-47.1c.31-.03,.61-.09,.92-.09,6.12,0,12.24-.02,18.35,0,2.61,.01,5.18,.32,7.63,1.32,3.83,1.56,6.33,4.31,7.18,8.36,1.01,4.82,.44,9.32-3.19,13.02-1.6,1.64-3.6,2.62-5.81,3.19-.41,.11-.83,.22-1.37,.36,3.95,6.98,7.85,13.88,11.87,20.98-1.93,0-3.67,.05-5.4-.04-.33-.02-.74-.52-.94-.89-3.36-6.17-6.72-12.35-10.02-18.55-.43-.81-.89-1.13-1.83-1.12-3.76,.06-7.52,.03-11.27,.03-.39,0-.78,0-1.31,0v20.52Zm.03-25.31c.13,.06,.2,.12,.26,.12,5.51-.04,11.02-.01,16.53-.16,2.15-.06,4.18-.83,5.67-2.5,2.52-2.84,2.71-6.18,1.51-9.55-1.22-3.42-4.15-4.84-7.52-4.97-5.27-.21-10.54-.1-15.82-.13-.19,0-.38,.05-.63,.09v17.09Z"/>
  <path class="cls-1" d="M296.63,156.83c11.88,.03,21.02,7.42,23.14,19.22,1.59,8.85-.39,16.89-7.19,23.23-5.1,4.75-11.36,6.39-18.17,5.83-7.39-.6-13.36-3.87-17.49-10.14-6.54-9.93-5.27-25.82,5.43-33.66,4.25-3.11,9.06-4.44,14.28-4.47Zm-18.72,22.74c-.06,11.63,6.2,19.78,16.14,20.95,6.41,.76,12.1-.93,16.44-5.91,4.53-5.2,5.59-11.41,4.36-17.99-2.87-15.3-19.13-18.69-28.82-12.15-5.79,3.91-7.99,9.73-8.12,15.11Z"/>
  <path class="cls-1" d="M227.53,114.86h4.52c.55,1.67,.9,3.34,1.64,4.82,1.5,3.01,4.09,4.76,7.34,5.44,4.37,.92,8.66,.78,12.72-1.31,2.93-1.51,4.23-4.03,4.17-7.26-.06-3.38-1.64-5.91-4.82-7.04-2.92-1.04-6-1.61-8.98-2.47-2.83-.82-5.73-1.49-8.41-2.67-4.9-2.16-6.22-7.08-5.67-11.62,.54-4.46,2.95-7.78,6.94-9.72,6.12-2.98,12.36-3.05,18.4,.24,4.38,2.38,7.15,7.75,6.89,12.86h-4.39c-.44-1.57-.68-3.23-1.34-4.69-1.84-4.06-6-6.38-10.63-6.13-2.65,.14-5.25,.48-7.53,2.02-2.58,1.74-3.73,4.19-3.56,7.26,.17,3.12,1.9,5.24,4.73,6.16,3.59,1.17,7.33,1.88,10.96,2.97,2.39,.72,4.79,1.54,7.01,2.67,3.47,1.77,5.02,4.94,5.25,8.72,.38,6.25-2.34,10.79-8.16,13.12-6.64,2.66-13.38,2.8-19.81-.63-4.92-2.63-6.88-7.2-7.27-12.73Z"/>
  <path class="cls-1" d="M371.78,174.17c-1.59,0-3.05,.04-4.51-.04-.27-.02-.64-.51-.74-.85-1.89-6.1-5.95-9.94-12.12-11.42-11.21-2.7-21.03,4.34-22.28,15.8-.5,4.58-.18,9.06,1.84,13.23,3.34,6.9,9.06,9.93,16.59,9.78,7.8-.16,13.63-4.55,15.95-11.97,.19-.59,.44-.82,1.08-.8,1.35,.05,2.71,.02,4.19,.02-1.41,6.36-4.67,11.24-10.28,14.44-8.06,4.6-19.37,3.65-26.47-2.3-4.56-3.82-6.95-8.89-7.76-14.71-.95-6.84,.04-13.33,3.99-19.14,3.84-5.65,9.35-8.58,16.07-9.23,5.39-.52,10.53,.37,15.17,3.33,5.05,3.23,7.97,7.91,9.29,13.86Z"/>
  <path class="cls-1" d="M458.46,157.93v4.34h-26.28v16.1h24.9v4.48h-24.89v16.81h26.23v4.51h-30.99v-46.25h31.04Z"/>
  <path class="cls-1" d="M399.69,177.4c3.33,4.31,6.79,8.79,10.25,13.28,3.44,4.45,6.88,8.9,10.48,13.56-2.08,0-3.9,.04-5.71-.04-.33-.01-.71-.44-.96-.76-5.57-7.22-11.12-14.45-16.67-21.68-.29-.38-.59-.74-.95-1.19-3.32,3.26-6.58,6.44-9.79,9.67-.28,.28-.32,.87-.32,1.32-.02,4.16-.01,8.31-.01,12.57h-4.69v-46.26h4.68v26.63c.56-.52,.89-.81,1.2-1.12,8.19-8.21,16.39-16.42,24.56-24.65,.67-.68,1.34-1.01,2.3-.96,1.55,.07,3.1,.02,4.51,.02-6.25,6.5-12.52,13-18.87,19.6Z"/>
  <path class="cls-1" d="M272.67,81.93h4.78c0,.51,0,.97,0,1.44,0,8.72-.04,17.44,.03,26.15,.02,2.06,.22,4.17,.71,6.16,1.61,6.53,6.8,10.27,13.54,9.96,7.73-.35,12.59-4.97,13.32-12.69,.13-1.35,.2-2.71,.2-4.07,.02-8.48,0-16.96,0-25.43,0-.47,0-.95,0-1.5h4.78c.02,.43,.05,.82,.05,1.21,0,8.72,0,17.44,0,26.15,0,3.46-.4,6.86-1.7,10.1-2.01,4.99-5.57,8.33-10.74,9.82-4.7,1.35-9.43,1.28-14.01-.46-6.09-2.32-9.28-7.08-10.47-13.29-.37-1.91-.52-3.89-.54-5.83-.06-8.92-.03-17.84-.02-26.75,0-.28,.03-.56,.05-.96Z"/>
  <path class="cls-1" d="M238.69,184.69v19.47h-4.71v-46.26c.28-.04,.51-.1,.74-.1,6.36,.02,12.71-.04,19.07,.11,3.77,.09,7.33,1.14,9.91,4.1,3.71,4.24,3.95,9.24,2.37,14.33-1.48,4.76-5.19,7.12-9.93,7.94-1.64,.29-3.34,.36-5.01,.38-3.68,.05-7.36,.02-11.03,.02-.43,0-.86,0-1.42,0Zm.03-4.72c.21,.05,.37,.12,.52,.12,4.96-.03,9.92,.05,14.87-.17,1.51-.07,3.12-.73,4.46-1.51,3.78-2.2,3.97-8.02,2.6-11.23-1.38-3.22-4.13-4.52-7.37-4.64-4.79-.19-9.59-.1-14.39-.13-.22,0-.44,.08-.68,.13v17.43Z"/>
  <path class="cls-1" d="M397.18,81.97v4.47h-25.05v16.39h23.64v4.61h-23.69v21.6h-4.81v-47.07h29.91Z"/>
  <path class="cls-1" d="M462.87,162.41v-4.51h34.34v4.47h-14.72v41.78h-4.82v-41.74h-14.8Z"/>
</svg>